<svg width="24" height="24" viewBox="0 0 1024 1024" xmlns="http://www.w3.org/2000/svg">
  <g fill="#030305">
    <path d="M407.84 27.68C652-30.88 920.64 128.96 986.72 370.72c77.6 240-62.56 521.12-300 604.64-225.12 90.88-504.16-16-612.8-232.32-114.08-206.56-51.36-488 139.84-626.4 57.12-43.52 124-73.6 194.08-88.96M113.76 275.84c-82.24 135.68-86.24 313.92-10.88 453.28 49.28 96.96 136.8 167.68 232.96 215.04-28.16-36.64-56.64-74.72-68.8-120.16-40-121.28 31.36-264.96 150.72-308.8 62.24-29.12 136.48-8.64 196.96-42.88 73.12-37.92 124-117.12 121.44-200.48C739.84 158.4 640.8 53.76 527.84 49.6c-165.76-8.32-331.04 82.88-414.08 226.24m575.2-195.52C738.24 138.24 775.2 211.2 768 289.28c-5.12 119.2-104.32 227.36-224.32 236.16-60.64 3.2-125.12 11.04-171.84 53.92-84.32 65.44-109.92 193.76-53.12 284.96 34.56 57.28 94.4 103.04 162.4 109.12 169.6 14.24 341.92-76.64 427.84-223.2 82.72-135.2 88-313.12 13.28-452.8-48.8-98.08-136.64-169.28-233.28-217.12"/>
    <path d="M482.08 176.32c67.52-23.84 142.88 40.64 128.8 111.04-7.2 72.8-103.52 110.88-159.52 64.48-64.32-44-45.12-156.16 30.72-175.52m1.28 33.76c-42.08 17.76-52.8 80.32-18.56 110.72 34.4 36.8 105.44 16.64 113.12-33.92 15.2-52.8-46.08-100.8-94.56-76.8m-14.24 451.04c62.4-32 146.4 19.2 142.72 90.24 5.44 76.64-90.88 128.64-153.28 85.6-65.92-37.44-59.52-146.56 10.56-175.84m14.08 28.8c-41.6 17.92-52.64 79.68-19.04 110.24 33.92 37.6 105.6 17.76 113.76-32.8 15.52-53.12-45.92-101.6-94.72-77.44"/>
  </g>
  <g fill="#fff">
    <path d="M113.76 275.84C196.8 132.48 362.08 41.28 527.84 49.6c112.96 4.16 212 108.8 208.32 222.24 2.56 83.36-48.32 162.56-121.44 200.48-60.48 34.24-134.72 13.76-196.96 42.88C298.4 559.04 227.04 702.72 267.04 824c12.16 45.44 40.64 83.52 68.8 120.16-96.16-47.36-183.68-118.08-232.96-215.04-75.36-139.36-71.36-317.6 10.88-453.28m368.32-99.52c-75.84 19.36-95.04 131.52-30.72 175.52 56 46.4 152.32 8.32 159.52-64.48 14.08-70.4-61.28-134.88-128.8-111.04"/>
    <path d="M483.2 689.92c48.8-24.16 110.24 24.32 94.72 77.44-8.16 50.56-79.84 70.4-113.76 32.8-33.6-30.56-22.56-92.32 19.04-110.24"/>
  </g>
  <g fill="#4658f5">
    <path d="M688.96 80.32c96.64 47.84 184.48 119.04 233.28 217.12 74.72 139.68 69.44 317.6-13.28 452.8-85.92 146.56-258.24 237.44-427.84 223.2-68-6.08-127.84-51.84-162.4-109.12-56.8-91.2-31.2-219.52 53.12-284.96 46.72-42.88 111.2-50.72 171.84-53.92 120-8.8 219.2-116.96 224.32-236.16 7.2-78.08-29.76-151.04-79.04-208.96m-219.84 580.8c-70.08 29.28-76.48 138.4-10.56 175.84 62.4 43.04 158.72-8.96 153.28-85.6 3.68-71.04-80.32-122.24-142.72-90.24"/>
    <path d="M483.36 210.08c48.48-24 109.76 24 94.56 76.8-7.68 50.56-78.72 70.72-113.12 33.92-34.24-30.4-23.52-92.96 18.56-110.72"/>
  </g>
</svg>
