<svg width="24" height="24" viewBox="0 0 512 512" xmlns="http://www.w3.org/2000/svg">
<path d="m130,117 h94.5 c-30,-40 -6.5,-87.3 40.5,-87.3 c47,0 70.5,47.3 40.5,87.3 h94.5 v94.5 c-40,-30 -87.3,-6.5 -87.3,40.5 c0,47 47.3,70.5 87.3,40.5 v121.5 h-94.5 c30,-40 6.5,-87.3 -40.5,-87.3 c-47,0 -70.5,47.3 -40.5,87.3 h-94.5 v-121.5 c-40,30 -87.3,6.5 -87.3,-40.5 c0,-47 47.3,-70.5 87.3,-40.5 z h-108 m108,-108 v108 m270,0 h108 m-108,-108 v108 m0,297 h108 m-108,81 v-81 m-270,0 h-108 m108,81 v-81" stroke="#000" fill="#4658f5" stroke-width="18" stroke-miterlimit="2" />
</svg>
