<svg version="1.0" viewBox="0 0 16 16" xmlns="http://www.w3.org/2000/svg" xmlns:xlink="http://www.w3.org/1999/xlink">
  <defs>
    <linearGradient id="linearGradient4392">
      <stop stop-color="#ffffff" offset="0"/>
      <stop stop-color="#d3d7cf" offset="1"/>
    </linearGradient>
    <linearGradient id="linearGradient3208">
      <stop stop-color="#c17d11" offset="0"/>
      <stop stop-color="#c17d11" stop-opacity="0" offset="1"/>
    </linearGradient>
    <radialGradient id="radialGradient4462" cx="42.938" cy="13" r="5.5" gradientTransform="matrix(1 0 0 .87501 0 1.6249)" gradientUnits="userSpaceOnUse">
      <stop stop-color="#f4dbb3" offset="0"/>
      <stop stop-color="#e9b96e" offset="1"/>
    </radialGradient>
    <linearGradient id="linearGradient4464" x1="42.656" x2="42.656" y1="12.818" y2="15.543" gradientUnits="userSpaceOnUse" xlink:href="#linearGradient3208"/>
    <linearGradient id="linearGradient4466" x1="42.656" x2="42.656" y1="12.531" y2="14.543" gradientUnits="userSpaceOnUse" xlink:href="#linearGradient3208"/>
    <linearGradient id="linearGradient4470" x1="42.656" x2="42.656" y1="13.499" y2="15.57" gradientUnits="userSpaceOnUse" xlink:href="#linearGradient3208"/>
    <linearGradient id="linearGradient4472" x1="41.406" x2="41.406" y1="10.062" y2="13.72" gradientUnits="userSpaceOnUse">
      <stop stop-color="#ffffff" offset="0"/>
      <stop stop-color="#ffffff" stop-opacity="0" offset="1"/>
    </linearGradient>
    <linearGradient id="linearGradient4474" x1="43.406" x2="43.406" y1="12.154" y2="13.879" gradientUnits="userSpaceOnUse">
      <stop stop-color="#ffffff" offset="0"/>
      <stop stop-color="#ffffff" stop-opacity="0" offset="1"/>
    </linearGradient>
    <linearGradient id="linearGradient4476" x1="45.469" x2="45.469" y1="12.094" y2="13.782" gradientUnits="userSpaceOnUse">
      <stop stop-color="#ffffff" offset="0"/>
      <stop stop-color="#ffffff" stop-opacity="0" offset="1"/>
    </linearGradient>
    <linearGradient id="linearGradient2262" x1="-48.438" x2="-48.438" y1="2.6537" y2="4.1125" gradientTransform="translate(57,-1)" gradientUnits="userSpaceOnUse" xlink:href="#linearGradient4392"/>
    <linearGradient id="linearGradient2267" x1="-48.438" x2="-48.438" y1="2.6537" y2="4.1125" gradientTransform="translate(57,2)" gradientUnits="userSpaceOnUse" xlink:href="#linearGradient4392"/>
    <linearGradient id="linearGradient2271" x1="-48.438" x2="-48.438" y1="2.6537" y2="4.1125" gradientTransform="translate(57,5)" gradientUnits="userSpaceOnUse" xlink:href="#linearGradient4392"/>
    <linearGradient id="linearGradient2275" x1="-48.438" x2="-48.438" y1="2.6537" y2="4.1125" gradientTransform="translate(57,8)" gradientUnits="userSpaceOnUse" xlink:href="#linearGradient4392"/>
  </defs>
  <g>
    <rect x=".5" y=".5" width="13" height="14" rx="2.1224" ry="2.1224" fill="#d3d7cf" stroke="#888a85" stroke-linecap="round" stroke-linejoin="round"/>
    <path d="m2.5 1h9c.831 0 1.5.669 1.5 1.5s-.669 1.5-1.5 1.5h-9c-.831 0-1.5-.669-1.5-1.5s.669-1.5 1.5-1.5z" fill="url(#linearGradient2262)" opacity=".99"/>
    <path d="m2.5 4h9c.831 0 1.5.669 1.5 1.5s-.669 1.5-1.5 1.5h-9c-.831 0-1.5-.669-1.5-1.5s.669-1.5 1.5-1.5z" fill="url(#linearGradient2267)" opacity=".99"/>
    <path d="m2.5 7h9c.831 0 1.5.669 1.5 1.5s-.669 1.5-1.5 1.5h-9c-.831 0-1.5-.669-1.5-1.5s.669-1.5 1.5-1.5z" fill="url(#linearGradient2271)" opacity=".99"/>
    <path d="m2.5 10h9c.831 0 1.5.669 1.5 1.5s-.669 1.5-1.5 1.5h-9c-.831 0-1.5-.669-1.5-1.5s.669-1.5 1.5-1.5z" fill="url(#linearGradient2275)" opacity=".99"/>
  </g>
  <path d="m2.625 1.5312c-.62876 0-1.0938.46499-1.0938 1.0938v9.75c0 .62876.46499 1.0938 1.0938 1.0938h8.75c.62876 0 1.0938-.46499 1.0938-1.0938v-9.75c0-.62876-.46499-1.0938-1.0938-1.0938h-8.75z" fill="none" stroke="#ffffff" stroke-linecap="round" stroke-linejoin="round"/>
  <path d="m8.5 3.5c-1.0882 0-2 .91179-2 2v2c-1.0882 0-2 .91179-2 2v2c0 .68616.15312 1.3067.40625 1.875.22197.078366.46929.125.71875.125h4.7812c1.1758 0 2.125-.9492 2.125-2.125v-4.875c-.010805-.000208-.020361 0-.03125 0-.38904 0-.69042.2388-1 .4375-.30958-.1987-.61096-.4375-1-.4375v-1c0-1.0882-.91179-2-2-2z" fill="#ffffff" opacity=".7" stroke="#ffffff" stroke-linecap="round" stroke-linejoin="round"/>
  <g transform="translate(-33,-3)">
    <path d="m41.5 7.5c-.554 0-1 .446-1 1v4c0-.554-.446-1-1-1s-1 .446-1 1v2c0 2.4687 2.3552 4.0153 4.0647 4h3.0915c1.5203 0 2.8438-1.9444 2.8438-3v-3c0-.554-.446-1-1-1s-1 .446-1 1v-1c0-.554-.446-1-1-1s-1 .446-1 1c0-.554-.446-1-1-1s-1 .446-1 1v-3c0-.554-.446-1-1-1z" fill="url(#radialGradient4462)" stroke="#c17d11" stroke-linecap="round" stroke-linejoin="round"/>
    <path d="m39.531 12.5-.0625 2c0 .92346.43497 1.645 1.0625 2.1875s1.4756.84872 2.0312.84375h3.0938c.34295 0 .84891-.30535 1.25-.78125s.625-1.1312.625-1.25v-3" fill="none" opacity=".54406" stroke="#ffffff" stroke-linecap="round" stroke-linejoin="round"/>
    <g fill="#c17d11" fill-rule="evenodd" stroke-linecap="round" stroke-width="1px">
      <path d="m46.5 11.992v3.5026" stroke="url(#linearGradient4464)"/>
      <path d="m44.5 10.903v3.5966" stroke="url(#linearGradient4466)"/>
      <path d="m42.5 10.5v4" stroke="url(#linearGradient4466)"/>
      <path d="m40.5 11.5v4" stroke="url(#linearGradient4470)"/>
    </g>
    <g fill="none" stroke-linecap="round" stroke-width="1px">
      <path d="m41.5 8.5v6" opacity=".51724" stroke="url(#linearGradient4472)"/>
      <path d="m43.5 11.5v3" opacity=".57088" stroke="url(#linearGradient4474)"/>
      <path d="m45.5 11.5v3" opacity=".57088" stroke="url(#linearGradient4476)"/>
    </g>
    <g fill="#ffffff">
      <path transform="matrix(1.1852 0 0 1.0667 -7.6666 -.96667)" d="m41.906 14.5a.42188.46875 0 11-.84375 0 .42188.46875 0 11.84375 0z"/>
      <path transform="matrix(1.1852 0 0 1.0667 -5.6666 -.96667)" d="m41.906 14.5a.42188.46875 0 11-.84375 0 .42188.46875 0 11.84375 0z"/>
      <path transform="matrix(1.1852 0 0 1.0667 -3.6666 -.96667)" d="m41.906 14.5a.42188.46875 0 11-.84375 0 .42188.46875 0 11.84375 0z"/>
    </g>
  </g>
</svg>
