<svg version="1.0" viewBox="0 0 24 24" xmlns="http://www.w3.org/2000/svg" xmlns:xlink="http://www.w3.org/1999/xlink">
  <defs>
    <filter id="filter6052" x="-.14148" y="-.70742" width="1.283" height="2.4148">
      <feGaussianBlur stdDeviation="1.1790392"/>
    </filter>
    <linearGradient id="linearGradient6062" x1="9.71" x2="24.286" y1="14.717" y2="-5.9536" gradientTransform="matrix(1.1176 0 0 1.1 -1.4118 -1.15)" gradientUnits="userSpaceOnUse">
      <stop stop-color="#ffffff" offset="0"/>
      <stop stop-color="#d3d7cf" offset="1"/>
    </linearGradient>
    <linearGradient id="linearGradient6082" x1="17.688" x2="18.562" y1="4.5279" y2="3.7493" gradientTransform="matrix(1.3473 0 0 1.3356 -6.7303 -1.5077)" gradientUnits="userSpaceOnUse">
      <stop stop-color="#ffffff" offset="0"/>
      <stop stop-color="#cbcbcb" offset="1"/>
    </linearGradient>
    <linearGradient id="linearGradient6114" x1="16.552" x2="16.552" y1="2.9627" y2="7.8356" gradientTransform="matrix(.98039 0 0 1.1 1.2941 -.8)" gradientUnits="userSpaceOnUse">
      <stop stop-color="#000000" offset="0"/>
      <stop stop-color="#000000" stop-opacity="0" offset="1"/>
    </linearGradient>
    <linearGradient id="linearGradient4922" x1="18.964" x2="14.047" y1="6.5045" y2="3.6734" gradientUnits="userSpaceOnUse">
      <stop stop-color="#888a85" offset="0"/>
      <stop stop-color="#5d5f5b" stop-opacity="0" offset="1"/>
    </linearGradient>
  </defs>
  <g>
    <rect x="2" y="19" width="20" height="4" rx="1.6351" ry="1.6351" color="#000000" fill="#000000" fill-rule="evenodd" filter="url(#filter6052)" opacity=".12664"/>
    <path d="m4.3274.5h11.469l5.2822 5.3278c.28198.35946.43275.71893.42119 1.0784v13.795c0 .9964-.81503 1.7986-1.8274 1.7986h-15.345c-1.0124 0-1.8274-.80216-1.8274-1.7986v-18.403c0-.9964.81503-1.7986 1.8274-1.7986z" color="#000000" fill="url(#linearGradient6062)" fill-rule="evenodd" stroke="#888a85" stroke-width="1px"/>
    <path d="m5.3211 1.4721h9.8721l5.2789 5.7474-.03735 12.436c0 1.0065-.82465 1.8167-1.849 1.8167h-13.265c-1.0243 0-1.849-.81026-1.849-1.8167v-16.367c0-1.0065.82465-1.8167 1.849-1.8167z" color="#000000" fill="none" stroke="#ffffff" stroke-width="1px"/>
  </g>
  <path d="m17.834 6.5c.051022.30182.13197.5406.24414.71875.25997.42091.68546.65039 1.1992.65039.47662 0 .86635-.1934 1.1387-.55859.14165-.19477.24361-.46305.30469-.81055h-.85938c-.014924.093317-.031412.1716-.050781.22266-.09903.25997-.2856.40234-.5332.40234-.22902 0-.40261-.11701-.50781-.33984-.029869-.064002-.053901-.16217-.074219-.28516h-.86133z" stroke-width=".3571"/>
  <path d="m5.5117 3.2441c-.47041 0-.87253.19927-1.1387.56445-.25378.34043-.37109.89582-.37109 1.75 0 .7799.09814 1.3259.30859 1.6602.25997.42091.68741.65039 1.2012.65039.47662 0 .86635-.1934 1.1387-.55859.24759-.34043.37109-.90334.37109-1.7266 0-.80465-.098144-1.349-.30859-1.6895-.25997-.42091-.68741-.65039-1.2012-.65039zm3.5156.09375c-.13617.51994-.58667.78516-1.3418.78516v.57617h1.0508v3.0273h.86719v-4.3887h-.57617zm3.4414 0c-.13617.51994-.58668.78516-1.3418.78516v.57617h1.0508v3.0273h.86719v-4.3887h-.57617zm3.4414 0c-.13617.51994-.58667.78516-1.3418.78516v.57617h1.0508v3.0273h.86719v-4.3887h-.57617zm-10.398.60547c.22283 0 .40261.1245.50781.35352.086657.18569.13672.66296.13672 1.2695 0 .49519-.04324.97677-.11133 1.1562-.099034.25997-.2856.40234-.5332.40234-.22902 0-.40261-.11701-.50781-.33984-.086657-.18569-.13477-.64442-.13477-1.2324 0-.51994.04324-1.0139.11133-1.1934.092846-.26616.28365-.41602.53125-.41602z" stroke-width=".3571"/>
  <path d="m16 2.0708 4.982 4.8486.018045 1.0806-4.9638-1e-7-.036229-5.9292z" fill="url(#linearGradient6114)" fill-rule="evenodd"/>
  <path d="m21.005 6.5-5.4679-2e-7-.036601-5.6532" fill="url(#linearGradient6082)" fill-rule="evenodd" stroke="url(#linearGradient4922)" stroke-width="1px"/>
  <path d="m5.2954 10.925v3.0268h.86657v-4.3884h-.57564c-.13617.51994-.58804.78608-1.3432.78608v.57564zm3.6581-1.4546c-.47041 0-.87275.19807-1.1389.56325-.25378.34043-.37138.8975-.37138 1.7517 0 .7799.099034 1.3246.30948 1.6588.25997.42091.68706.64992 1.2008.64992.47662 0 .86657-.19188 1.1389-.55708.24759-.34043.37138-.90371.37138-1.7269 0-.80465-.09903-1.3494-.30948-1.6898-.25997-.42091-.68706-.64992-1.2008-.64992zm0 .69945c.22283 0 .40234.1238.50755.35282.086657.18569.13617.66231.13617 1.2689 0 .49519-.043327.97799-.11142 1.1575-.099034.25997-.28473.40234-.53233.40234-.22902 0-.40234-.1176-.50755-.34044-.086657-.18569-.13617-.64374-.13617-1.2317 0-.51994.043327-1.0151.11142-1.1946.092846-.26616.28473-.4147.53233-.4147zm3.4415-.69945c-.47041 0-.87275.19807-1.1389.56325-.25378.34043-.37138.8975-.37138 1.7517 0 .7799.09903 1.3246.30948 1.6588.25997.42091.68706.64992 1.2008.64992.47662 0 .86657-.19188 1.1389-.55708.24759-.34043.37138-.90371.37138-1.7269 0-.80465-.09903-1.3494-.30948-1.6898-.25997-.42091-.68706-.64992-1.2008-.64992zm0 .69945c.22283 0 .40234.1238.50754.35282.08666.18569.13617.66231.13617 1.2689 0 .49519-.04333.97799-.11141 1.1575-.09904.25997-.28473.40234-.53233.40234-.22902 0-.40234-.1176-.50754-.34044-.08666-.18569-.13617-.64374-.13617-1.2317 0-.51994.04333-1.0151.11142-1.1946.09285-.26616.28473-.4147.53233-.4147zm3.2248.75516v3.0268h.86657v-4.3884h-.57564c-.13617.51994-.58804.78608-1.3432.78608v.57564zm3.4415 0v3.0268h.86657v-4.3884h-.57564c-.13617.51994-.58804.78608-1.3432.78608v.57564z" stroke-width=".3571"/>
  <path d="m5.5121 15.697c-.47041 0-.87275.19807-1.1389.56325-.25378.34043-.37138.8975-.37138 1.7517 0 .7799.099034 1.3246.30949 1.6588.25997.42091.68706.64992 1.2008.64992.47662 0 .86657-.19188 1.1389-.55707.24759-.34043.37138-.90371.37138-1.7269 0-.80465-.099034-1.3494-.30948-1.6898-.25997-.42091-.68706-.64992-1.2008-.64992zm0 .69945c.22283 0 .40234.1238.50755.35282.086657.18569.13617.66231.13617 1.2689 0 .49519-.043327.97799-.11141 1.1575-.099034.25997-.28473.40234-.53233.40234-.22902 0-.40234-.1176-.50755-.34044-.086657-.18569-.13617-.64374-.13617-1.2317 0-.51994.043327-1.0151.11142-1.1946.092846-.26616.28473-.4147.53233-.4147zm3.4415-.69945c-.47041 0-.87275.19807-1.1389.56325-.25378.34043-.37138.8975-.37138 1.7517 0 .7799.099034 1.3246.30948 1.6588.25997.42091.68706.64992 1.2008.64992.47662 0 .86657-.19188 1.1389-.55707.24759-.34043.37138-.90371.37138-1.7269 0-.80465-.09903-1.3494-.30948-1.6898-.25997-.42091-.68706-.64992-1.2008-.64992zm0 .69945c.22283 0 .40234.1238.50755.35282.086657.18569.13617.66231.13617 1.2689 0 .49519-.043327.97799-.11142 1.1575-.099034.25997-.28473.40234-.53233.40234-.22902 0-.40234-.1176-.50755-.34044-.086657-.18569-.13617-.64374-.13617-1.2317 0-.51994.043327-1.0151.11142-1.1946.092846-.26616.28473-.4147.53233-.4147zm3.2248.75516v3.0268h.86657v-4.3884h-.57564c-.13617.51994-.58804.78608-1.3432.78608v.57564zm3.4415 0v3.0268h.86657v-4.3884h-.57564c-.13617.51994-.58804.78608-1.3432.78608v.57564zm3.4415 0v3.0268h.86657v-4.3884h-.57564c-.13617.51994-.58804.78608-1.3432.78608v.57564z" stroke-width=".3571"/>
</svg>
