<svg version="1.0" viewBox="0 0 24 24" xmlns="http://www.w3.org/2000/svg" xmlns:xlink="http://www.w3.org/1999/xlink">
  <defs>
    <filter id="filter6052" x="-.14148" y="-.70742" width="1.283" height="2.4148">
      <feGaussianBlur stdDeviation="1.1790392"/>
    </filter>
    <linearGradient id="linearGradient6062" x1="9.71" x2="24.286" y1="14.717" y2="-5.9536" gradientTransform="matrix(1.1176 0 0 1.1 -1.4118 -1.15)" gradientUnits="userSpaceOnUse">
      <stop stop-color="#ffffff" offset="0"/>
      <stop stop-color="#d3d7cf" offset="1"/>
    </linearGradient>
    <linearGradient id="linearGradient6082" x1="17.688" x2="18.562" y1="4.5279" y2="3.7493" gradientTransform="matrix(1.3473 0 0 1.3356 -6.7303 -1.5077)" gradientUnits="userSpaceOnUse">
      <stop stop-color="#ffffff" offset="0"/>
      <stop stop-color="#cbcbcb" offset="1"/>
    </linearGradient>
    <linearGradient id="linearGradient6114" x1="16.552" x2="16.552" y1="2.9627" y2="7.8356" gradientTransform="matrix(.98039 0 0 1.1 1.2941 -.8)" gradientUnits="userSpaceOnUse">
      <stop stop-color="#000000" offset="0"/>
      <stop stop-color="#000000" stop-opacity="0" offset="1"/>
    </linearGradient>
    <linearGradient id="linearGradient4922" x1="18.964" x2="14.047" y1="6.5045" y2="3.6734" gradientUnits="userSpaceOnUse">
      <stop stop-color="#888a85" offset="0"/>
      <stop stop-color="#5d5f5b" stop-opacity="0" offset="1"/>
    </linearGradient>
  </defs>
  <g>
    <rect x="2" y="19" width="20" height="4" rx="1.6351" ry="1.6351" color="#000000" fill="#000000" fill-rule="evenodd" filter="url(#filter6052)" opacity=".12664"/>
    <path d="m4.3274.5h11.469l5.2822 5.3278c.28198.35946.43275.71893.42119 1.0784v13.795c0 .9964-.81503 1.7986-1.8274 1.7986h-15.345c-1.0124 0-1.8274-.80216-1.8274-1.7986v-18.403c0-.9964.81503-1.7986 1.8274-1.7986z" color="#000000" fill="url(#linearGradient6062)" fill-rule="evenodd" stroke="#888a85" stroke-width="1px"/>
    <path d="m5.349 1.5h9.8721l5.2789 5.7474-.037354 12.436c0 1.0065-.82465 1.8167-1.849 1.8167h-13.265c-1.0243 0-1.849-.81026-1.849-1.8167v-16.367c0-1.0065.82465-1.8167 1.849-1.8167z" color="#000000" fill="none" stroke="#ffffff" stroke-width="1px"/>
  </g>
  <g transform="matrix(.016041 0 0 .016041 3.7357 5.04)" fill="#030305">
    <path d="m407.84 27.68c244.16-58.56 512.8 101.28 578.88 343.04 77.6 240-62.56 521.12-300 604.64-225.12 90.88-504.16-16-612.8-232.32-114.08-206.56-51.36-488 139.84-626.4 57.12-43.52 124-73.6 194.08-88.96m-294.08 248.16c-82.24 135.68-86.24 313.92-10.88 453.28 49.28 96.96 136.8 167.68 232.96 215.04-28.16-36.64-56.64-74.72-68.8-120.16-40-121.28 31.36-264.96 150.72-308.8 62.24-29.12 136.48-8.64 196.96-42.88 73.12-37.92 124-117.12 121.44-200.48 3.68-113.44-95.36-218.08-208.32-222.24-165.76-8.32-331.04 82.88-414.08 226.24m575.2-195.52c49.28 57.92 86.24 130.88 79.04 208.96-5.12 119.2-104.32 227.36-224.32 236.16-60.64 3.2-125.12 11.04-171.84 53.92-84.32 65.44-109.92 193.76-53.12 284.96 34.56 57.28 94.4 103.04 162.4 109.12 169.6 14.24 341.92-76.64 427.84-223.2 82.72-135.2 88-313.12 13.28-452.8-48.8-98.08-136.64-169.28-233.28-217.12"/>
    <path d="m482.08 176.32c67.52-23.84 142.88 40.64 128.8 111.04-7.2 72.8-103.52 110.88-159.52 64.48-64.32-44-45.12-156.16 30.72-175.52m1.28 33.76c-42.08 17.76-52.8 80.32-18.56 110.72 34.4 36.8 105.44 16.64 113.12-33.92 15.2-52.8-46.08-100.8-94.56-76.8m-14.24 451.04c62.4-32 146.4 19.2 142.72 90.24 5.44 76.64-90.88 128.64-153.28 85.6-65.92-37.44-59.52-146.56 10.56-175.84m14.08 28.8c-41.6 17.92-52.64 79.68-19.04 110.24 33.92 37.6 105.6 17.76 113.76-32.8 15.52-53.12-45.92-101.6-94.72-77.44"/>
  </g>
  <g transform="matrix(.016041 0 0 .016041 3.7357 5.04)" fill="#ffffff">
    <path d="m113.76 275.84c83.04-143.36 248.32-234.56 414.08-226.24 112.96 4.16 212 108.8 208.32 222.24 2.56 83.36-48.32 162.56-121.44 200.48-60.48 34.24-134.72 13.76-196.96 42.88-119.36 43.84-190.72 187.52-150.72 308.8 12.16 45.44 40.64 83.52 68.8 120.16-96.16-47.36-183.68-118.08-232.96-215.04-75.36-139.36-71.36-317.6 10.88-453.28m368.32-99.52c-75.84 19.36-95.04 131.52-30.72 175.52 56 46.4 152.32 8.32 159.52-64.48 14.08-70.4-61.28-134.88-128.8-111.04"/>
    <path d="m483.2 689.92c48.8-24.16 110.24 24.32 94.72 77.44-8.16 50.56-79.84 70.4-113.76 32.8-33.6-30.56-22.56-92.32 19.04-110.24"/>
  </g>
  <g transform="matrix(.016041 0 0 .016041 3.7357 5.04)" fill="#4658f5">
    <path d="m688.96 80.32c96.64 47.84 184.48 119.04 233.28 217.12 74.72 139.68 69.44 317.6-13.28 452.8-85.92 146.56-258.24 237.44-427.84 223.2-68-6.08-127.84-51.84-162.4-109.12-56.8-91.2-31.2-219.52 53.12-284.96 46.72-42.88 111.2-50.72 171.84-53.92 120-8.8 219.2-116.96 224.32-236.16 7.2-78.08-29.76-151.04-79.04-208.96m-219.84 580.8c-70.08 29.28-76.48 138.4-10.56 175.84 62.4 43.04 158.72-8.96 153.28-85.6 3.68-71.04-80.32-122.24-142.72-90.24"/>
    <path d="m483.36 210.08c48.48-24 109.76 24 94.56 76.8-7.68 50.56-78.72 70.72-113.12 33.92-34.24-30.4-23.52-92.96 18.56-110.72"/>
  </g>
  <path d="m16 2.0708 4.982 4.8486.018045 1.0806-4.9638-1e-7-.036229-5.9292z" fill="url(#linearGradient6114)" fill-rule="evenodd"/>
  <path d="m21.005 6.5-5.4679-2e-7-.036601-5.6532" fill="url(#linearGradient6082)" fill-rule="evenodd" stroke="url(#linearGradient4922)" stroke-width="1px"/>
</svg>
