<svg viewBox="0 0 48 48" xmlns="http://www.w3.org/2000/svg">
  <path d="m4.732.19079c-1.3173 0-2.444.55467-3.1893 1.5773-.71067.95333-1.04 2.5133-1.04 4.9053 0 2.184.27733 3.7093.86667 4.6453.728 1.1787 1.924 1.82 3.3627 1.82 1.3347 0 2.4267-.53733 3.1893-1.56.69333-.95333 1.04-2.5307 1.04-4.836 0-2.2533-.27733-3.7787-.86666-4.732-.728-1.1787-1.924-1.82-3.3627-1.82zm0 1.9587c.624 0 1.1267.34667 1.4213.988.24267.52.38133 1.8547.38133 3.5533 0 1.3867-.12133 2.7387-.312 3.2413-.27733.728-.79733 1.1267-1.4907 1.1267-.64133 0-1.1267-.32933-1.4213-.95333-.24267-.52-.38133-1.8027-.38133-3.4493 0-1.456.12133-2.8427.312-3.3453.26-.74533.79733-1.1613 1.4907-1.1613zm9.0306 2.1147v8.476h2.4267v-12.289h-1.612c-.38133 1.456-1.6467 2.2013-3.7613 2.2013v1.612zm9.6373 0v8.476h2.4267v-12.289h-1.612c-.38133 1.456-1.6467 2.2013-3.7613 2.2013v1.612zm9.6373 0v8.476h2.4267v-12.289h-1.612c-.38133 1.456-1.6467 2.2013-3.7613 2.2013v1.612zm10.244-4.0733c-1.3173 0-2.444.55467-3.1893 1.5773-.71067.95333-1.04 2.5133-1.04 4.9053 0 2.184.27733 3.7093.86666 4.6453.728 1.1787 1.924 1.82 3.3627 1.82 1.3347 0 2.4267-.53733 3.1893-1.56.69333-.95333 1.04-2.5307 1.04-4.836 0-2.2533-.27733-3.7787-.86666-4.732-.728-1.1787-1.924-1.82-3.3627-1.82zm0 1.9587c.624 0 1.1267.34667 1.4213.988.24267.52.38133 1.8547.38133 3.5533 0 1.3867-.12133 2.7387-.312 3.2413-.27733.728-.79733 1.1267-1.4907 1.1267-.64133 0-1.1267-.32933-1.4213-.95333-.24267-.52-.38133-1.8027-.38133-3.4493 0-1.456.12133-2.8427.312-3.3453.26-.74533.79733-1.1613 1.4907-1.1613z" opacity=".5"/>
  <path d="m4.1253 21.699v8.476h2.4267v-12.289h-1.612c-.38133 1.456-1.6467 2.2013-3.7613 2.2013v1.612zm10.244-4.0733c-1.3173 0-2.444.55466-3.1893 1.5773-.71067.95333-1.04 2.5133-1.04 4.9053 0 2.184.27733 3.7093.86666 4.6453.728 1.1787 1.924 1.82 3.3627 1.82 1.3347 0 2.4267-.53733 3.1893-1.56.69333-.95333 1.04-2.5307 1.04-4.836 0-2.2533-.27733-3.7787-.86666-4.732-.728-1.1787-1.924-1.82-3.3627-1.82zm0 1.9587c.624 0 1.1267.34667 1.4213.988.24267.52.38133 1.8547.38133 3.5533 0 1.3867-.12133 2.7387-.312 3.2413-.27733.728-.79733 1.1267-1.4907 1.1267-.64133 0-1.1267-.32933-1.4213-.95333-.24267-.52-.38133-1.8027-.38133-3.4493 0-1.456.12133-2.8427.312-3.3453.26-.74533.79733-1.1613 1.4907-1.1613zm9.6373-1.9587c-1.3173 0-2.444.55466-3.1893 1.5773-.71067.95333-1.04 2.5133-1.04 4.9053 0 2.184.27733 3.7093.86666 4.6453.728 1.1787 1.924 1.82 3.3627 1.82 1.3347 0 2.4267-.53733 3.1893-1.56.69333-.95333 1.04-2.5307 1.04-4.836 0-2.2533-.27733-3.7787-.86666-4.732-.728-1.1787-1.924-1.82-3.3627-1.82zm0 1.9587c.624 0 1.1267.34667 1.4213.988.24267.52.38133 1.8547.38133 3.5533 0 1.3867-.12133 2.7387-.312 3.2413-.27733.728-.79733 1.1267-1.4907 1.1267-.64133 0-1.1267-.32933-1.4213-.95333-.24267-.52-.38133-1.8027-.38133-3.4493 0-1.456.12133-2.8427.312-3.3453.26-.74533.79733-1.1613 1.4907-1.1613zm9.0306 2.1147v8.476h2.4267v-12.289h-1.612c-.38133 1.456-1.6467 2.2013-3.7613 2.2013v1.612zm9.6373 0v8.476h2.4267v-12.289h-1.612c-.38133 1.456-1.6467 2.2013-3.7613 2.2013v1.612z"/>
  <path d="m4.732 35.061c-1.3173 0-2.444.55467-3.1893 1.5773-.71067.95333-1.04 2.5133-1.04 4.9053 0 2.184.27733 3.7093.86667 4.6453.728 1.1787 1.924 1.82 3.3627 1.82 1.3347 0 2.4267-.53733 3.1893-1.56.69333-.95333 1.04-2.5307 1.04-4.836 0-2.2533-.27733-3.7787-.86666-4.732-.728-1.1787-1.924-1.82-3.3627-1.82zm0 1.9587c.624 0 1.1267.34667 1.4213.988.24267.52.38133 1.8547.38133 3.5533 0 1.3867-.12133 2.7387-.312 3.2413-.27733.728-.79733 1.1267-1.4907 1.1267-.64133 0-1.1267-.32933-1.4213-.95333-.24267-.52-.38133-1.8027-.38133-3.4493 0-1.456.12133-2.8427.312-3.3453.26-.74533.79733-1.1613 1.4907-1.1613zm9.6373-1.9587c-1.3173 0-2.444.55467-3.1893 1.5773-.71067.95333-1.04 2.5133-1.04 4.9053 0 2.184.27733 3.7093.86666 4.6453.728 1.1787 1.924 1.82 3.3627 1.82 1.3347 0 2.4267-.53733 3.1893-1.56.69333-.95333 1.04-2.5307 1.04-4.836 0-2.2533-.27733-3.7787-.86666-4.732-.728-1.1787-1.924-1.82-3.3627-1.82zm0 1.9587c.624 0 1.1267.34667 1.4213.988.24267.52.38133 1.8547.38133 3.5533 0 1.3867-.12133 2.7387-.312 3.2413-.27733.728-.79733 1.1267-1.4907 1.1267-.64133 0-1.1267-.32933-1.4213-.95333-.24267-.52-.38133-1.8027-.38133-3.4493 0-1.456.12133-2.8427.312-3.3453.26-.74533.79733-1.1613 1.4907-1.1613zm9.0306 2.1147v8.476h2.4267v-12.289h-1.612c-.38133 1.456-1.6467 2.2013-3.7613 2.2013v1.612zm9.6373 0v8.476h2.4267v-12.289h-1.612c-.38133 1.456-1.6467 2.2013-3.7613 2.2013v1.612zm9.6373 0v8.476h2.4267v-12.289h-1.612c-.38133 1.456-1.6467 2.2013-3.7613 2.2013v1.612z" opacity=".5"/>
</svg>
